<?xml version="1.0" encoding="UTF-8" standalone="no"?>
<svg
   width="405"
   height="404"
   viewBox="0 0 405 404"
   version="1.1"
   id="svg91"
   sodipodi:docname="page_icon.svg"
   inkscape:version="1.1.2 (0a00cf5339, 2022-02-04)"
   inkscape:label="layer_i"
   xmlns:inkscape="http://www.inkscape.org/namespaces/inkscape"
   xmlns:sodipodi="http://sodipodi.sourceforge.net/DTD/sodipodi-0.dtd"
   xmlns:xlink="http://www.w3.org/1999/xlink"
   xmlns="http://www.w3.org/2000/svg"
   xmlns:svg="http://www.w3.org/2000/svg">
  <sodipodi:namedview
     id="namedview93"
     pagecolor="#ffffff"
     bordercolor="#666666"
     borderopacity="1.0"
     inkscape:pageshadow="2"
     inkscape:pageopacity="0.0"
     inkscape:pagecheckerboard="0"
     showgrid="false"
     inkscape:zoom="0.44275386"
     inkscape:cx="135.51547"
     inkscape:cy="364.76249"
     inkscape:window-width="1850"
     inkscape:window-height="1016"
     inkscape:window-x="70"
     inkscape:window-y="1107"
     inkscape:window-maximized="1"
     inkscape:current-layer="svg91"
     showguides="true"
     inkscape:guide-bbox="true">
    <sodipodi:guide
       position="-199,12"
       orientation="0,-1"
       id="guide149742" />
    <sodipodi:guide
       position="420.7708,353.293"
       orientation="0,-1"
       id="guide161704" />
    <sodipodi:guide
       position="574.0872,118.0449"
       orientation="0,-1"
       id="guide161710" />
    <sodipodi:guide
       position="670.7675,246.6387"
       orientation="0,-1"
       id="guide161712" />
  </sodipodi:namedview>
  <defs
     id="defs85">
    <linearGradient
       inkscape:collect="always"
       id="linearGradient124706">
      <stop
         style="stop-color:#7ea8c5;stop-opacity:1"
         offset="0"
         id="stop124702" />
      <stop
         style="stop-color:#404e73;stop-opacity:1"
         offset="1"
         id="stop124704" />
    </linearGradient>
    <style
       id="style83">
      .cls-1 {
        opacity: 0.4;
      }
    </style>
    <linearGradient
       inkscape:collect="always"
       xlink:href="#linearGradient124706"
       id="linearGradient124708"
       x1="1129.2401"
       y1="606.47083"
       x2="1401.899"
       y2="774.6546"
       gradientUnits="userSpaceOnUse" />
  </defs>
  <g
     id="g149219"
     inkscape:label="Globe"
     transform="translate(-1025,-490)">
    <ellipse
       style="display:inline;fill:#c8d3da;fill-opacity:1;fill-rule:evenodd"
       id="path1259"
       cx="1227.5"
       cy="692"
       rx="202.5"
       ry="202"
       inkscape:label="Circle" />
    <g
       id="g124715"
       style="display:inline;stroke:#355c77;stroke-opacity:1"
       inkscape:label="Arrows">
      <g
         id="g124711"
         style="stroke:#355c77;stroke-opacity:1"
         inkscape:label="g124711">
        <path
           style="fill:url(#linearGradient124708);fill-opacity:1;stroke:none;stroke-width:5;stroke-miterlimit:4;stroke-dasharray:none;stroke-opacity:1"
           d="m 1330,681 61,-12 c 3.02,7.842 4.076,15.87 6.019,24 0.623,2.608 1.725,6.621 4.931,7.079 3.39,0.484 5.145,-4.756 6.294,-7.079 4.368,-8.837 7.681,-18.455 10.126,-28 6.613,-25.808 -5.85,-43.846 -20.997,-64 -5.472,-7.282 -12.303,-17.758 -20.354,-22.338 -4.273,-2.4306 -5.13,2.0092 -4.714,5.3388 0.586,4.6919 7.851,20.6632 3.171,23.9322 -2.895,2.022 -10.95,0.067 -14.476,0.067 -10.657,-10e-4 -21.347,-0.246 -32,0.015 -4.325,0.106 -9.726,2.094 -13.892,0.382 -5.397,-2.219 -7.556,-13.418 -9.687,-18.397 -7.301,-17.0598 -16.733,-32.6765 -25.421,-49 5.562,-1.763 24.398,-1.5626 26.824,-7.2245 2.682,-6.2591 -15.778,-11.6544 -19.824,-13.3511 -16.725,-7.013 -34.232,-12.7414 -52,-16.4213 -6.905,-1.4301 -15.602,-3.9163 -21.535,1.4267 -9.584,8.6288 -15.545,24.2163 -21.218,35.5702 -1.756,3.5154 -6.626,10.6646 -1.928,13.821 8.653,5.8139 20.931,-6.3429 29.576,-1.7786 4.537,2.3953 6.205,9.4776 7.761,13.9576 4.228,12.1783 8.181,24.53 11.46,37 1.02,3.88 4.614,11.885 2.683,15.697 -2.377,4.69 -15.124,5.832 -19.799,7.163 -16.494,4.695 -32.732,10.384 -49,15.807 -4.374,1.458 -13.407,6.621 -17.891,4.977 -7.289,-2.674 -4.547,-35.284 -17.019,-27.036 -5.418,3.583 -8.841,11.197 -12.514,16.392 -10.2548,14.501 -20.0164,29.506 -28.7149,45 -3.9849,7.098 -10.3602,15.972 -4.2083,23.815 3.6295,4.627 10.3443,6.941 15.3472,9.761 13.8979,7.833 28.591,14.399 43,21.205 4.886,2.308 14.588,9.972 19.566,4.897 7.959,-8.114 -7.807,-22.054 -1.784,-30.399 3.34,-4.629 13.088,-4.493 18.218,-5.476 17.25,-3.306 34.664,-5.608 52,-8.393 4.543,-0.729 16.572,-4.766 20.411,-1.637 3.876,3.159 4.049,14.529 4.989,19.227 3.19,15.949 5.824,31.89 8.024,48 0.723,5.296 3.474,14.919 0.548,19.775 -5.411,8.981 -25.656,0.601 -29.171,11.33 -1.841,5.617 6.874,11.422 10.109,14.895 8.451,9.072 17.016,17.641 26.09,26.09 4.394,4.091 8.431,9.791 15,9.823 7.581,0.036 13.971,-7.022 19,-11.928 12.818,-12.503 24.842,-25.974 35.996,-39.985 3.543,-4.45 12.487,-12.805 12.176,-18.891 -0.593,-11.601 -26.368,5.893 -29.399,-4.168 -2.107,-6.995 0.227,-18.497 0.227,-25.941 0,-21.005 0.853,-42.26 -3,-63"
           id="path1080"
           sodipodi:nodetypes="ccsscccssscscccscsccsscsccscscsscsscccscscccscccscsc"
           inkscape:label="path1080" />
      </g>
    </g>
  </g>
</svg>
