<?xml version="1.0" encoding="UTF-8" standalone="no"?>
<!-- Created with Inkscape (http://www.inkscape.org/) -->

<svg
   sodipodi:docname="slice.svg"
   inkscape:version="1.1.2 (0a00cf5339, 2022-02-04)"
   id="svg5"
   version="1.1"
   viewBox="0 0 100 100"
   height="100"
   width="100"
   xmlns:inkscape="http://www.inkscape.org/namespaces/inkscape"
   xmlns:sodipodi="http://sodipodi.sourceforge.net/DTD/sodipodi-0.dtd"
   xmlns:xlink="http://www.w3.org/1999/xlink"
   xmlns="http://www.w3.org/2000/svg"
   xmlns:svg="http://www.w3.org/2000/svg">
  <sodipodi:namedview
     id="namedview7"
     pagecolor="#505050"
     bordercolor="#eeeeee"
     borderopacity="1"
     inkscape:pageshadow="0"
     inkscape:pageopacity="0"
     inkscape:pagecheckerboard="0"
     inkscape:document-units="px"
     showgrid="false"
     width="119px"
     inkscape:zoom="5.1729627"
     inkscape:cx="23.97079"
     inkscape:cy="39.145846"
     inkscape:window-width="1850"
     inkscape:window-height="1016"
     inkscape:window-x="70"
     inkscape:window-y="1107"
     inkscape:window-maximized="1"
     inkscape:current-layer="layer1"
     inkscape:snap-object-midpoints="true"
     inkscape:snap-center="true"
     inkscape:snap-intersection-paths="true"
     inkscape:object-paths="true"
     inkscape:snap-global="true"
     showguides="false"
     inkscape:guide-bbox="true">
    <sodipodi:guide
       position="30.035447,93.169941"
       orientation="1,0"
       id="guide2084" />
    <sodipodi:guide
       position="66.583207,76.233152"
       orientation="1,0"
       id="guide2086" />
    <sodipodi:guide
       position="7.1422605,50.004177"
       orientation="0,-1"
       id="guide2506" />
    <sodipodi:guide
       position="-7.5457056,19.866262"
       orientation="0,-1"
       id="guide2508" />
    <sodipodi:guide
       position="0,34.980263"
       orientation="0,-1"
       id="guide2814" />
    <sodipodi:guide
       position="89.995021,45.775762"
       orientation="1,0"
       id="guide14083" />
    <sodipodi:guide
       position="20,56.787779"
       orientation="1,0"
       id="guide15929" />
    <sodipodi:guide
       position="46.67408,44.216522"
       orientation="1,0"
       id="guide20473" />
    <sodipodi:guide
       position="59.946832,44.216522"
       orientation="1,0"
       id="guide20513" />
    <sodipodi:guide
       position="46.67408,44.216522"
       orientation="0,-1"
       id="guide21313" />
  </sodipodi:namedview>
  <defs
     id="defs2">
    <inkscape:path-effect
       effect="bend_path"
       id="path-effect3216"
       is_visible="true"
       lpeversion="1"
       bendpath="M 69.728766,69.925371 H 93.333"
       prop_scale="1"
       scale_y_rel="false"
       vertical="false"
       hide_knot="false" />
    <inkscape:path-effect
       effect="ruler"
       id="path-effect19661"
       is_visible="true"
       lpeversion="1"
       unit="pt"
       mark_distance="3.16"
       mark_length="4"
       minor_mark_length="3"
       major_mark_steps="5"
       shift="0"
       offset="0.37"
       mark_dir="left"
       border_marks="none" />
    <inkscape:path-effect
       effect="fill_between_many"
       id="path-effect18951"
       is_visible="true"
       lpeversion="1"
       linkedpaths=""
       method="bsplinespiro"
       join="true"
       close="true"
       autoreverse="true"
       applied="false" />
    <marker
       style="overflow:visible"
       id="marker17108"
       refX="0.0"
       refY="0.0"
       orient="auto"
       inkscape:stockid="Arrow2Lstart"
       inkscape:isstock="true">
      <path
         transform="scale(1.1) translate(1,0)"
         d="M 8.7185878,4.0337352 L -2.2072895,0.016013256 L 8.7185884,-4.0017078 C 6.9730900,-1.6296469 6.9831476,1.6157441 8.7185878,4.0337352 z "
         style="stroke:context-stroke;fill-rule:evenodd;fill:context-stroke;stroke-width:0.62500000;stroke-linejoin:round"
         id="path17106" />
    </marker>
    <marker
       id="ExperimentalArrow"
       refX="5.0"
       refY="3.0"
       orient="auto-start-reverse"
       inkscape:stockid="ExperimentalArrow"
       inkscape:isstock="true">
      <path
         style="fill:context-stroke"
         d="m 10,3 -10,3 0,-6 z"
         id="path14268" />
    </marker>
    <marker
       style="overflow:visible"
       id="marker17090"
       refX="0.0"
       refY="0.0"
       orient="auto"
       inkscape:stockid="TriangleInL"
       inkscape:isstock="true">
      <path
         transform="scale(-0.8)"
         style="fill-rule:evenodd;fill:context-stroke;stroke:context-stroke;stroke-width:1.0pt"
         d="M 5.77,0.0 L -2.88,5.0 L -2.88,-5.0 L 5.77,0.0 z "
         id="path17088" />
    </marker>
    <marker
       style="overflow:visible"
       id="TriangleInL"
       refX="0.0"
       refY="0.0"
       orient="auto"
       inkscape:stockid="TriangleInL"
       inkscape:isstock="true">
      <path
         transform="scale(-0.8)"
         style="fill-rule:evenodd;fill:context-stroke;stroke:context-stroke;stroke-width:1.0pt"
         d="M 5.77,0.0 L -2.88,5.0 L -2.88,-5.0 L 5.77,0.0 z "
         id="path14148" />
    </marker>
    <marker
       style="overflow:visible;"
       id="marker16551"
       refX="0.0"
       refY="0.0"
       orient="auto"
       inkscape:stockid="Arrow2Lend"
       inkscape:isstock="true">
      <path
         transform="scale(1.1) rotate(180) translate(1,0)"
         d="M 8.7185878,4.0337352 L -2.2072895,0.016013256 L 8.7185884,-4.0017078 C 6.9730900,-1.6296469 6.9831476,1.6157441 8.7185878,4.0337352 z "
         style="stroke:context-stroke;fill-rule:evenodd;fill:context-stroke;stroke-width:0.62500000;stroke-linejoin:round;"
         id="path16549" />
    </marker>
    <marker
       style="overflow:visible;"
       id="marker15620"
       refX="0.0"
       refY="0.0"
       orient="auto"
       inkscape:stockid="Arrow2Lend"
       inkscape:isstock="true">
      <path
         transform="scale(1.1) rotate(180) translate(1,0)"
         d="M 8.7185878,4.0337352 L -2.2072895,0.016013256 L 8.7185884,-4.0017078 C 6.9730900,-1.6296469 6.9831476,1.6157441 8.7185878,4.0337352 z "
         style="stroke:context-stroke;fill-rule:evenodd;fill:context-stroke;stroke-width:0.62500000;stroke-linejoin:round;"
         id="path15618" />
    </marker>
    <marker
       style="overflow:visible;"
       id="Arrow2Lend"
       refX="0.0"
       refY="0.0"
       orient="auto"
       inkscape:stockid="Arrow2Lend"
       inkscape:isstock="true">
      <path
         transform="scale(1.1) rotate(180) translate(1,0)"
         d="M 8.7185878,4.0337352 L -2.2072895,0.016013256 L 8.7185884,-4.0017078 C 6.9730900,-1.6296469 6.9831476,1.6157441 8.7185878,4.0337352 z "
         style="stroke:context-stroke;fill-rule:evenodd;fill:context-stroke;stroke-width:0.62500000;stroke-linejoin:round;"
         id="path14036" />
    </marker>
    <marker
       style="overflow:visible;"
       id="marker15362"
       refX="0.0"
       refY="0.0"
       orient="auto"
       inkscape:stockid="Arrow1Lend"
       inkscape:isstock="true">
      <path
         transform="scale(0.8) rotate(180) translate(12.5,0)"
         style="fill-rule:evenodd;fill:context-stroke;stroke:context-stroke;stroke-width:1.0pt;"
         d="M 0.0,0.0 L 5.0,-5.0 L -12.5,0.0 L 5.0,5.0 L 0.0,0.0 z "
         id="path15360" />
    </marker>
    <marker
       style="overflow:visible;"
       id="Arrow1Lend"
       refX="0.0"
       refY="0.0"
       orient="auto"
       inkscape:stockid="Arrow1Lend"
       inkscape:isstock="true">
      <path
         transform="scale(0.8) rotate(180) translate(12.5,0)"
         style="fill-rule:evenodd;fill:context-stroke;stroke:context-stroke;stroke-width:1.0pt;"
         d="M 0.0,0.0 L 5.0,-5.0 L -12.5,0.0 L 5.0,5.0 L 0.0,0.0 z "
         id="path14018" />
    </marker>
    <marker
       style="overflow:visible"
       id="Scissors"
       refX="0.0"
       refY="0.0"
       orient="auto"
       inkscape:stockid="Scissors"
       inkscape:isstock="true">
      <path
         style="fill:context-stroke;"
         d="M 9.0898857,-3.6061018 C 8.1198849,-4.7769976 6.3697607,-4.7358294 5.0623558,-4.2327734 L -3.1500488,-1.1548705 C -5.5383421,-2.4615840 -7.8983361,-2.0874077 -7.8983361,-2.7236578 C -7.8983361,-3.2209742 -7.4416699,-3.1119800 -7.5100293,-4.4068519 C -7.5756648,-5.6501286 -8.8736064,-6.5699315 -10.100428,-6.4884954 C -11.327699,-6.4958500 -12.599867,-5.5553341 -12.610769,-4.2584343 C -12.702194,-2.9520479 -11.603560,-1.7387447 -10.304005,-1.6532027 C -8.7816644,-1.4265411 -6.0857470,-2.3487593 -4.8210600,-0.082342643 C -5.7633447,1.6559151 -7.4350844,1.6607341 -8.9465707,1.5737277 C -10.201445,1.5014928 -11.708664,1.8611256 -12.307219,3.0945882 C -12.885586,4.2766744 -12.318421,5.9591904 -10.990470,6.3210002 C -9.6502788,6.8128279 -7.8098011,6.1912892 -7.4910978,4.6502760 C -7.2454393,3.4624530 -8.0864637,2.9043186 -7.7636052,2.4731223 C -7.5199917,2.1477623 -5.9728246,2.3362771 -3.2164999,1.0982979 L 5.6763468,4.2330688 C 6.8000164,4.5467672 8.1730685,4.5362646 9.1684433,3.4313614 L -0.051640930,-0.053722219 L 9.0898857,-3.6061018 z M -9.2179159,-5.5066058 C -7.9233569,-4.7838060 -8.0290767,-2.8230356 -9.3743431,-2.4433169 C -10.590861,-2.0196559 -12.145370,-3.2022863 -11.757521,-4.5207817 C -11.530373,-5.6026336 -10.104134,-6.0014137 -9.2179159,-5.5066058 z M -9.1616516,2.5107591 C -7.8108215,3.0096239 -8.0402087,5.2951947 -9.4138723,5.6023681 C -10.324932,5.9187072 -11.627422,5.4635705 -11.719569,4.3902287 C -11.897178,3.0851737 -10.363484,1.9060805 -9.1616516,2.5107591 z "
         id="schere" />
    </marker>
    <marker
       style="overflow:visible"
       id="Arrow2Lstart"
       refX="0.0"
       refY="0.0"
       orient="auto"
       inkscape:stockid="Arrow2Lstart"
       inkscape:isstock="true">
      <path
         transform="scale(1.1) translate(1,0)"
         d="M 8.7185878,4.0337352 L -2.2072895,0.016013256 L 8.7185884,-4.0017078 C 6.9730900,-1.6296469 6.9831476,1.6157441 8.7185878,4.0337352 z "
         style="stroke:context-stroke;fill-rule:evenodd;fill:context-stroke;stroke-width:0.62500000;stroke-linejoin:round"
         id="path14033" />
    </marker>
    <marker
       style="overflow:visible"
       id="TriangleInS"
       refX="0.0"
       refY="0.0"
       orient="auto"
       inkscape:stockid="TriangleInS"
       inkscape:isstock="true">
      <path
         transform="scale(-0.2)"
         style="fill-rule:evenodd;fill:context-stroke;stroke:context-stroke;stroke-width:1.0pt"
         d="M 5.77,0.0 L -2.88,5.0 L -2.88,-5.0 L 5.77,0.0 z "
         id="path14154" />
    </marker>
    <marker
       style="overflow:visible"
       id="SquareS"
       refX="0.0"
       refY="0.0"
       orient="auto"
       inkscape:stockid="SquareS"
       inkscape:isstock="true">
      <path
         transform="scale(0.2)"
         style="fill-rule:evenodd;fill:context-stroke;stroke:context-stroke;stroke-width:1.0pt"
         d="M -5.0,-5.0 L -5.0,5.0 L 5.0,5.0 L 5.0,-5.0 L -5.0,-5.0 z "
         id="path14091" />
    </marker>
    <marker
       style="overflow:visible"
       id="marker15312"
       refX="0.0"
       refY="0.0"
       orient="auto"
       inkscape:stockid="Arrow2Sstart"
       inkscape:isstock="true">
      <path
         transform="scale(0.3) translate(-2.3,0)"
         d="M 8.7185878,4.0337352 L -2.2072895,0.016013256 L 8.7185884,-4.0017078 C 6.9730900,-1.6296469 6.9831476,1.6157441 8.7185878,4.0337352 z "
         style="stroke:context-stroke;fill-rule:evenodd;fill:context-stroke;stroke-width:0.62500000;stroke-linejoin:round"
         id="path15310" />
    </marker>
    <marker
       style="overflow:visible;"
       id="Arrow2Send"
       refX="0.0"
       refY="0.0"
       orient="auto"
       inkscape:stockid="Arrow2Send"
       inkscape:isstock="true">
      <path
         transform="scale(0.3) rotate(180) translate(-2.3,0)"
         d="M 8.7185878,4.0337352 L -2.2072895,0.016013256 L 8.7185884,-4.0017078 C 6.9730900,-1.6296469 6.9831476,1.6157441 8.7185878,4.0337352 z "
         style="stroke:context-stroke;fill-rule:evenodd;fill:context-stroke;stroke-width:0.62500000;stroke-linejoin:round;"
         id="path14048" />
    </marker>
    <marker
       style="overflow:visible"
       id="Arrow2Sstart"
       refX="0.0"
       refY="0.0"
       orient="auto"
       inkscape:stockid="Arrow2Sstart"
       inkscape:isstock="true">
      <path
         transform="scale(0.3) translate(-2.3,0)"
         d="M 8.7185878,4.0337352 L -2.2072895,0.016013256 L 8.7185884,-4.0017078 C 6.9730900,-1.6296469 6.9831476,1.6157441 8.7185878,4.0337352 z "
         style="stroke:context-stroke;fill-rule:evenodd;fill:context-stroke;stroke-width:0.62500000;stroke-linejoin:round"
         id="path14045" />
    </marker>
    <marker
       style="overflow:visible"
       id="Arrow2Mstart"
       refX="0.0"
       refY="0.0"
       orient="auto"
       inkscape:stockid="Arrow2Mstart"
       inkscape:isstock="true">
      <path
         transform="scale(0.6) translate(0,0)"
         d="M 8.7185878,4.0337352 L -2.2072895,0.016013256 L 8.7185884,-4.0017078 C 6.9730900,-1.6296469 6.9831476,1.6157441 8.7185878,4.0337352 z "
         style="stroke:context-stroke;fill-rule:evenodd;fill:context-stroke;stroke-width:0.62500000;stroke-linejoin:round"
         id="path14039" />
    </marker>
    <marker
       style="overflow:visible"
       id="Tail"
       refX="0.0"
       refY="0.0"
       orient="auto"
       inkscape:stockid="Tail"
       inkscape:isstock="true">
      <g
         transform="scale(-1.2)"
         id="g14063">
        <path
           style="fill:none;fill-rule:evenodd;stroke:context-stroke;stroke-width:0.8;stroke-linecap:round"
           d="M -3.8048674,-3.9585227 L 0.54352094,0"
           id="path14051" />
        <path
           style="fill:none;fill-rule:evenodd;stroke:context-stroke;stroke-width:0.8;stroke-linecap:round"
           d="M -1.2866832,-3.9585227 L 3.0617053,0"
           id="path14053" />
        <path
           style="fill:none;fill-rule:evenodd;stroke:context-stroke;stroke-width:0.8;stroke-linecap:round"
           d="M 1.3053582,-3.9585227 L 5.6537466,0"
           id="path14055" />
        <path
           style="fill:none;fill-rule:evenodd;stroke:context-stroke;stroke-width:0.8;stroke-linecap:round"
           d="M -3.8048674,4.1775838 L 0.54352094,0.21974226"
           id="path14057" />
        <path
           style="fill:none;fill-rule:evenodd;stroke:context-stroke;stroke-width:0.8;stroke-linecap:round"
           d="M -1.2866832,4.1775838 L 3.0617053,0.21974226"
           id="path14059" />
        <path
           style="fill:none;fill-rule:evenodd;stroke:context-stroke;stroke-width:0.8;stroke-linecap:round"
           d="M 1.3053582,4.1775838 L 5.6537466,0.21974226"
           id="path14061" />
      </g>
    </marker>
    <marker
       style="overflow:visible"
       id="Arrow1Lstart"
       refX="0.0"
       refY="0.0"
       orient="auto"
       inkscape:stockid="Arrow1Lstart"
       inkscape:isstock="true">
      <path
         transform="scale(0.8) translate(12.5,0)"
         style="fill-rule:evenodd;fill:context-stroke;stroke:context-stroke;stroke-width:1.0pt"
         d="M 0.0,0.0 L 5.0,-5.0 L -12.5,0.0 L 5.0,5.0 L 0.0,0.0 z "
         id="path14015" />
    </marker>
    <inkscape:path-effect
       effect="ruler"
       id="path-effect9015"
       is_visible="true"
       lpeversion="1"
       unit="pt"
       mark_distance="9.57"
       mark_length="7"
       minor_mark_length="7"
       major_mark_steps="5"
       shift="0"
       offset="10"
       mark_dir="both"
       border_marks="none" />
    <linearGradient
       id="Background"
       inkscape:swatch="gradient">
      <stop
         style="stop-color:#0083ff;stop-opacity:1"
         offset="0"
         id="stop1678" />
      <stop
         style="stop-color:#b300ff;stop-opacity:1"
         offset="1"
         id="stop1680" />
    </linearGradient>
    <linearGradient
       inkscape:collect="always"
       xlink:href="#Background"
       id="linearGradient1750"
       gradientUnits="userSpaceOnUse"
       x1="0"
       y1="0"
       x2="100"
       y2="100" />
    <linearGradient
       inkscape:collect="always"
       xlink:href="#Background"
       id="linearGradient18218"
       x1="2.7752042"
       y1="-18"
       x2="102.77521"
       y2="82"
       gradientUnits="userSpaceOnUse"
       gradientTransform="translate(-2.7752041)" />
  </defs>
  <g
     inkscape:label="Layer 1"
     id="layer1">
    <rect
       style="fill:url(#linearGradient1750);fill-opacity:1;fill-rule:evenodd;stroke:none;stroke-width:1;stroke-miterlimit:4;stroke-dasharray:none;stroke-dashoffset:0;stroke-opacity:1"
       id="rect31"
       width="100"
       height="100"
       x="0"
       y="0"
       rx="15"
       ry="15"
       inkscape:label="Background" />
    <g
       id="g21857"
       inkscape:label="Slice"
       transform="translate(0,18)"
       style="stroke:#fefefe;stroke-opacity:1">
      <path
         style="fill:none;stroke:#fefefe;stroke-width:2.66667;stroke-linecap:round;stroke-linejoin:round;stroke-miterlimit:4;stroke-dasharray:none;stroke-opacity:1"
         d="M 10,49.995823 30,50 40.037704,65.019737 h 6.636376 v -9.236259 h -2.942317 l 9.578693,-9.236258 9.794587,9.236258 h -3.158211 v 9.236259 h 6.636375 l 2.550652,3.977851"
         id="path901"
         sodipodi:nodetypes="cccccccccccc"
         inkscape:label="Ground" />
      <path
         style="fill:none;fill-rule:evenodd;stroke:#fefefe;stroke-width:2.66667;stroke-linecap:round;stroke-miterlimit:4;stroke-dasharray:none;stroke-opacity:1"
         d="m 69.106054,68.954225 c 0.590657,-0.258275 1.013197,-0.467236 1.603855,-0.588347 0.590717,-0.121102 1.181373,-0.104899 1.77203,0.03993 0.590716,0.144831 1.181373,0.41256 1.772029,0.669339 0.590717,0.256779 1.181373,0.491392 1.77209,0.587119 0.590658,0.09573 1.181314,0.04779 1.77203,-0.119313 0.590658,-0.1671 1.181316,-0.446624 1.772031,-0.698898 0.590542,-0.252274 1.181141,-0.466187 1.771742,-0.535422 0.591176,-0.06923 1.181775,0.0099 1.772374,0.197303 0.590601,0.187412 1.181202,0.475453 1.771803,0.720259 0.590599,0.244807 1.181774,0.435522 1.772374,0.477451 0.590601,0.04192 1.1812,-0.06745 1.771801,-0.272983 0.529607,-0.184303 1.059215,-0.439088 1.589238,-0.658819"
         title="t sin(5*t)"
         id="path11287"
         sodipodi:nodetypes="ccccccccssccc"
         inkscape:label="Water" />
      <g
         id="g21776"
         inkscape:label="Trees"
         style="stroke-width:2.66667;stroke-miterlimit:4;stroke-dasharray:none;stroke:#fefefe;stroke-opacity:1">
        <path
           style="fill:none;stroke:#fefefe;stroke-width:2.66667;stroke-linecap:butt;stroke-linejoin:miter;stroke-miterlimit:4;stroke-dasharray:none;stroke-opacity:1"
           d="m 17.224796,49.995823 v -6.783602 c 0,0 -5,-8.503331 -5,-13.212221 0,-3.733879 1.27322,-10 5,-10 3.72678,0 5,6.277698 5,10 0,4.70889 -5,13.212221 -5,13.212221"
           id="path14540-3-6"
           sodipodi:nodetypes="ccszsc"
           inkscape:label="Back" />
        <path
           style="fill:url(#linearGradient18218);fill-opacity:1;fill-rule:evenodd;stroke:#fefefe;stroke-width:2.66667;stroke-linecap:butt;stroke-linejoin:miter;stroke-miterlimit:4;stroke-dasharray:none;stroke-opacity:1"
           d="m 22.697949,49.995823 v -6.783602 c 0,0 -5,-8.503331 -5,-13.212221 0,-3.604903 1.27322,-10 5,-10 3.72678,0 5,6.277952 5,10 0,4.70889 -5,13.212221 -5,13.212221"
           id="path14540-3"
           sodipodi:nodetypes="ccszsc"
           inkscape:label="Front" />
      </g>
    </g>
    <g
       style="fill:#000000;fill-opacity:1;stroke:none;stroke-width:30.5759;stroke-linecap:butt;stroke-linejoin:round;stroke-miterlimit:4;stroke-dasharray:none;stroke-opacity:1"
       id="g21990"
       transform="matrix(0,0.08721466,0.08721466,0,44.648601,9.1545192)">
      <g
         id="g21980"
         style="fill:#000000;fill-opacity:1;stroke:none;stroke-width:30.5759;stroke-linecap:butt;stroke-linejoin:round;stroke-miterlimit:4;stroke-dasharray:none;stroke-opacity:1">
        <g
           id="g21978"
           style="fill:#000000;fill-opacity:1;stroke:none;stroke-width:30.5759;stroke-linecap:butt;stroke-linejoin:round;stroke-miterlimit:4;stroke-dasharray:none;stroke-opacity:1">
          <path
             d="m 491.253,2.95 c -0.4,-1.2 -1.6,-2.4 -2.8,-2.8 -1.2,-0.4 -2.8,0 -4,1.2 l -284.6,284.6 c -0.4,0.4 -173.4,173.4 -173.4,173.4 -6,6 -9.2,13.6 -9.2,22 0,8.4 3.2,16 8.8,22 6,5.6 14,8.8 22,8.8 8,0 15.2,-2.8 20.8,-8 0.4,0 1.2,-0.4 1.6,-0.8 l 171.2,-171.2 59.2,59.2 c 0.8,0.8 2,1.2 2.8,1.2 0.8,0 2,-0.4 2.8,-1.2 118.4,-118.4 162.4,-217.2 178.4,-279.6 17.6,-68 6.8,-107.2 6.4,-108.8 z"
             id="path21976"
             style="fill:#000000;fill-opacity:1;stroke:none;stroke-width:30.5759;stroke-linecap:butt;stroke-linejoin:round;stroke-miterlimit:4;stroke-dasharray:none;stroke-opacity:1"
             sodipodi:nodetypes="csscsscscscssscc" />
        </g>
      </g>
    </g>
  </g>
</svg>
